<?xml version="1.0" encoding="UTF-8"?>
<svg version="1.1" xmlns="http://www.w3.org/2000/svg" width="512" height="512">
<path d="M0 0 C1.74216797 -0.04253906 1.74216797 -0.04253906 3.51953125 -0.0859375 C11.12384655 0.86966336 16.38596591 4.97896251 21.61633301 10.32281494 C22.21119995 10.91426418 22.80606688 11.50571342 23.41896009 12.11508536 C25.39373578 14.08331496 27.35394679 16.06541619 29.31445312 18.04785156 C30.73347464 19.46800225 32.15337929 20.88727097 33.57409668 22.3057251 C37.4172182 26.14770131 41.24790149 30.00186484 45.07644081 33.85836506 C49.08378073 37.89074887 53.10248856 41.91177083 57.11999512 45.934021 C64.72096228 53.54740909 72.31167731 61.17093402 79.89874601 68.79816985 C88.53897577 77.48314459 97.19059747 86.15673296 105.84318638 94.82939196 C123.63731307 112.66530301 141.41711327 130.51543831 159.1875 148.375 C163.28570995 146.75203152 166.01768729 143.80644598 169.05024719 140.72584534 C169.63267392 140.1423052 170.21510064 139.55876506 170.81517667 138.95754188 C172.76738605 136.99925613 174.71234703 135.03392563 176.6574707 133.06860352 C178.05509266 131.66386966 179.45318579 130.25960446 180.85171509 128.85577393 C183.86373016 125.83065185 186.87270801 122.80255163 189.87948036 119.7722187 C194.63470781 114.9804291 199.39860137 110.19732002 204.16410828 105.41575623 C217.71447367 91.81707074 231.25309587 78.20672958 244.78295898 64.58764648 C252.25454523 57.06694436 259.73331591 49.55346109 267.21984929 42.0476374 C271.95792311 37.29648207 276.68684123 32.53645446 281.40918505 27.76966679 C284.35092615 24.80444839 287.30101225 21.84764376 290.25351334 18.8931427 C291.61995377 17.52241085 292.98295392 16.14823945 294.34221077 14.77038383 C296.20025499 12.88790891 298.07031268 11.01822444 299.94380188 9.15113831 C300.47708912 8.60483546 301.01037635 8.05853262 301.55982381 7.49567515 C306.98736939 2.13981713 312.36921548 -0.05377583 320.125 -0.0625 C327.36803756 0.12931773 331.89346949 1.23813993 337.15234375 6.24609375 C342.40136563 11.92448347 344.47604473 16.34600727 344.5625 24.1875 C344.59085937 25.34894531 344.61921875 26.51039063 344.6484375 27.70703125 C343.63591134 35.76433687 339.07142297 41.078674 333.45158386 46.61885071 C332.77523543 47.3014391 332.098887 47.98402749 331.40204316 48.68730038 C329.14615805 50.95906761 326.87633353 53.21635352 324.60620117 55.47387695 C322.98069155 57.10480972 321.35603344 58.73659155 319.73216248 60.36915588 C315.32817477 64.79135518 310.91165655 69.20083661 306.49221587 73.60758615 C301.86636366 78.22330139 297.2502901 82.84877939 292.63264465 87.47270203 C284.38201 95.73187483 276.12053735 103.9801309 267.85546098 112.22484835 C260.36696962 119.695464 252.8890359 127.17651314 245.41870117 134.6652832 C236.73454434 143.37086092 228.04368952 152.06966153 219.34290868 160.75862664 C214.74040658 165.35489427 210.14064598 169.95381794 205.54787254 174.55980873 C201.23048599 178.88875156 196.90342838 183.20778885 192.56871986 187.51938438 C190.9798041 189.10301232 189.39428022 190.69005188 187.81242371 192.2807312 C185.65219257 194.45189724 183.48000898 196.61036004 181.30436707 198.7660675 C180.68158802 199.39776944 180.05880897 200.02947137 179.41715783 200.68031579 C173.68693724 206.30917903 168.48070433 208.80324161 160.25 208.8125 C159.10660156 208.83183594 157.96320313 208.85117187 156.78515625 208.87109375 C148.77470934 207.76650444 143.46686752 203.24172065 137.94364929 197.63908386 C137.2610609 196.96273543 136.57847251 196.286387 135.87519962 195.58954316 C133.60343239 193.33365805 131.34614648 191.06383353 129.08862305 188.79370117 C127.45769028 187.16819155 125.82590845 185.54353344 124.19334412 183.91966248 C119.77114482 179.51567477 115.36166339 175.09915655 110.95491385 170.67971587 C106.33919861 166.05386366 101.71372061 161.4377901 97.08979797 156.82014465 C88.83062517 148.56951 80.5823691 140.30803735 72.33765165 132.04296098 C64.867036 124.55446962 57.38598686 117.0765359 49.8972168 109.60620117 C41.19163908 100.92204434 32.49283847 92.23118952 23.80387336 83.53040868 C19.20760573 78.92790658 14.60868206 74.32814598 10.00269127 69.73537254 C5.67374844 65.41798599 1.35471115 61.09092838 -2.95688438 56.75621986 C-4.54051232 55.1673041 -6.12755188 53.58178022 -7.7182312 51.99992371 C-9.88939724 49.83969257 -12.04786004 47.66750898 -14.2035675 45.49186707 C-14.83526944 44.86908802 -15.46697137 44.24630897 -16.11781579 43.60465783 C-21.74667903 37.87443724 -24.24074161 32.66820433 -24.25 24.4375 C-24.05818227 17.19446244 -22.94936007 12.66903051 -17.94140625 7.41015625 C-12.26301653 2.16113437 -7.84149273 0.08645527 0 0 Z " fill="#ffffff" transform="translate(95.8125,167.625)"/>
</svg>
