<?xml version="1.0" encoding="UTF-8"?>
<svg version="1.1" xmlns="http://www.w3.org/2000/svg" width="512" height="512">
<path d="M0 0 C6.01440155 3.46550501 12.06841357 6.85810368 18.12890625 10.2421875 C30.97368241 17.42035365 43.78326897 24.65969885 56.58789062 31.90917969 C59.43463799 33.52063854 62.28166256 35.13160574 65.12890625 36.7421875 C66.07121094 37.27521484 67.01351562 37.80824219 67.984375 38.35742188 C75.10446771 42.38119204 82.23987004 46.37714632 89.37890625 50.3671875 C97.88294827 55.12075238 106.35790372 59.92129173 114.80786133 64.77026367 C121.53316189 68.6233733 128.29599837 72.40652223 135.06640625 76.1796875 C143.37573889 80.81158979 151.61817024 85.54157986 159.81640625 90.3671875 C167.75205288 95.0360936 175.76193953 99.52143593 183.87890625 103.8671875 C191.93861066 108.19168136 199.92173136 112.62245391 207.81640625 117.2421875 C208.71439941 117.76176025 209.61239258 118.28133301 210.53759766 118.81665039 C224.02294161 126.786897 232.53536594 136.93589747 236.75390625 152.3046875 C239.13557094 166.47014415 236.80403552 179.8724147 229 192.0390625 C222.00137596 201.37056122 212.257375 206.79612426 202.19140625 212.3671875 C200.71244873 213.19464478 200.71244873 213.19464478 199.20361328 214.03881836 C196.05628187 215.79875773 192.90511837 217.55170811 189.75390625 219.3046875 C185.54417669 221.65636092 181.33655899 224.01180075 177.12890625 226.3671875 C176.08081787 226.95314697 175.03272949 227.53910645 173.95288086 228.14282227 C166.50966773 232.30799324 159.09774766 236.52506988 151.69995117 240.77026367 C144.97465061 244.6233733 138.21181413 248.40652223 131.44140625 252.1796875 C123.13206822 256.8115928 114.88976528 261.54178331 106.69140625 266.3671875 C97.74323107 271.62909559 88.68715425 276.64560051 79.54052734 281.55322266 C72.20851557 285.49404427 64.96371025 289.56611863 57.75048828 293.71972656 C51.01230203 297.59725453 44.23308447 301.39675521 37.44140625 305.1796875 C29.13193795 309.81138283 20.8900409 314.54225006 12.69140625 319.3671875 C4.47347787 324.19391324 -3.80902295 328.87979515 -12.18359375 333.4296875 C-13.64841187 334.22838257 -13.64841187 334.22838257 -15.14282227 335.04321289 C-31.1156374 343.65439097 -44.90579776 347.97318328 -63.046875 343.3359375 C-75.31244742 339.38219987 -85.77520072 331.2566258 -92 319.91796875 C-97.07743932 309.26967124 -98.39635286 299.88265635 -98.38653564 288.23094177 C-98.38950677 287.12411248 -98.39247789 286.01728318 -98.39553905 284.87691361 C-98.40420248 281.17241062 -98.40573231 277.46794004 -98.40722656 273.76342773 C-98.41185643 271.10534006 -98.41686105 268.44725528 -98.42227173 265.78916931 C-98.43582525 258.56986746 -98.44187525 251.35057118 -98.44628239 244.13125873 C-98.44905014 239.61823138 -98.45328848 235.10520616 -98.45778656 230.59218025 C-98.46997586 218.08210478 -98.4802755 205.57203101 -98.48366165 193.06194973 C-98.48388122 192.26202719 -98.48410078 191.46210464 -98.484327 190.63794202 C-98.48454528 189.8361693 -98.48476356 189.03439658 -98.48498845 188.20832771 C-98.48543191 186.58379074 -98.48587847 184.95925377 -98.48632812 183.3347168 C-98.48654955 182.52890044 -98.48677098 181.72308407 -98.48699912 180.89284904 C-98.49094396 167.84680921 -98.50838991 154.80082534 -98.53168765 141.75480711 C-98.55544713 128.34126848 -98.56786561 114.92775788 -98.56902957 101.51419789 C-98.56994381 93.99084839 -98.57563239 86.4675718 -98.59384918 78.94424248 C-98.60931243 72.53577861 -98.61433421 66.12741019 -98.60611108 59.71893119 C-98.6022263 56.45436147 -98.60468663 53.19002211 -98.61716843 49.92546844 C-98.69290968 28.87287755 -98.22867109 10.79681597 -82.91796875 -5.3359375 C-55.64490593 -29.41916841 -26.97567104 -15.5635306 0 0 Z M-70.24609375 14.3046875 C-73.33912543 19.25917898 -75.36767188 24.07503113 -75.38031483 29.95908546 C-75.38477267 30.9209255 -75.38923051 31.88276553 -75.39382344 32.87375224 C-75.39363908 33.93277636 -75.39345472 34.99180049 -75.39326477 36.08291626 C-75.39694146 37.20618989 -75.40061815 38.32946353 -75.40440625 39.48677576 C-75.41546589 43.27064803 -75.41929081 47.05449287 -75.4230957 50.83837891 C-75.42882552 53.5433984 -75.43599235 56.24841376 -75.44300842 58.95343018 C-75.46277273 67.08577152 -75.47283949 75.21811411 -75.48173621 83.35047346 C-75.4861196 87.18068527 -75.49148632 91.0108957 -75.49672508 94.84110641 C-75.51373814 107.57492346 -75.52823176 120.30873964 -75.53547382 133.0425663 C-75.5373837 136.3472252 -75.53930404 139.65188409 -75.54125977 142.95654297 C-75.54174351 143.77789535 -75.54222725 144.59924773 -75.54272565 145.44548957 C-75.55102385 158.7473733 -75.57635686 172.04916703 -75.60884044 185.35101147 C-75.64192308 199.0096116 -75.65992371 212.66816602 -75.66311806 226.32680643 C-75.66528216 233.99484039 -75.67401599 241.66274317 -75.69957924 249.33073807 C-75.72130281 255.86206141 -75.7293286 262.3932217 -75.71961246 268.92457707 C-75.71507223 272.25545429 -75.71912536 275.5857229 -75.7363739 278.91659927 C-75.75405158 282.53286867 -75.74700569 286.14828702 -75.73384094 289.76455688 C-75.74481019 290.81019668 -75.75577943 291.85583648 -75.76708108 292.93316233 C-75.68778951 301.96560737 -73.08789302 309.08139747 -66.9609375 315.80078125 C-60.4666672 321.49621192 -52.62428005 322.92762938 -44.22265625 322.81640625 C-37.68133924 322.23435342 -32.25504538 318.89515446 -26.66943359 315.69140625 C-23.96816728 314.14564838 -21.2438378 312.64610377 -18.515625 311.1484375 C-6.9699108 304.77930143 4.430005 298.17302038 15.79614258 291.49023438 C23.75767043 286.83237221 31.83584542 282.41934728 39.96289062 278.05834961 C49.10461974 273.144446 58.1055188 268.00395717 67.10009766 262.82714844 C71.72344716 260.17478344 76.36321269 257.55155496 81.00390625 254.9296875 C81.95386475 254.39287354 82.90382324 253.85605957 83.88256836 253.30297852 C92.09476519 248.66747206 100.32619654 244.06658238 108.55761719 239.46533203 C115.14309186 235.77955424 121.7073022 232.05902587 128.25390625 228.3046875 C135.85362789 223.94640856 143.48187538 219.64191066 151.12890625 215.3671875 C163.02453238 208.71575145 174.91040515 202.0485989 186.75390625 195.3046875 C187.60114258 194.82451172 188.44837891 194.34433594 189.32128906 193.84960938 C191.67898879 192.51007077 194.02993809 191.15946519 196.37890625 189.8046875 C197.05953125 189.41958008 197.74015625 189.03447266 198.44140625 188.63769531 C203.93629302 185.43888623 208.18271448 181.67906348 211.50390625 176.1796875 C211.91125 175.51710938 212.31859375 174.85453125 212.73828125 174.171875 C215.61782311 168.87794803 215.38768739 163.1582616 214.75390625 157.3046875 C210.13749126 143.39797679 197.88046948 137.27810753 185.69140625 130.8046875 C177.65549524 126.48359312 169.73703559 122.00331653 161.87890625 117.3671875 C152.86952093 112.0602493 143.75459248 106.99976353 134.54125977 102.05664062 C127.21140061 98.11674409 119.96899731 94.04521235 112.75708008 89.89404297 C105.95134914 85.97887339 99.10954278 82.13173378 92.25390625 78.3046875 C83.70758904 73.53154426 75.19063443 68.71153735 66.70043945 63.83935547 C59.97494135 59.98622538 53.21197306 56.20294134 46.44140625 52.4296875 C38.13206822 47.7977822 29.88976528 43.06759169 21.69140625 38.2421875 C12.7580622 32.98900075 3.71960442 27.97543193 -5.41552734 23.08251953 C-13.21645281 18.89530545 -20.91241078 14.54415043 -28.5612793 10.08544922 C-42.68246198 1.90387187 -58.7052482 1.14512595 -70.24609375 14.3046875 Z " fill="#ffffff" transform="translate(186.24609375,92.6953125)"/>
</svg>
